%TF.GenerationSoftware,KiCad,Pcbnew,9.0.4-1.fc42*%
%TF.CreationDate,2025-11-01T05:47:49+00:00*%
%TF.ProjectId,dna,646e612e-6b69-4636-9164-5f7063625858,rev?*%
%TF.SameCoordinates,Original*%
%TF.FileFunction,Soldermask,Bot*%
%TF.FilePolarity,Negative*%
%FSLAX46Y46*%
G04 Gerber Fmt 4.6, Leading zero omitted, Abs format (unit mm)*
G04 Created by KiCad (PCBNEW 9.0.4-1.fc42) date 2025-11-01 05:47:49*
%MOMM*%
%LPD*%
G01*
G04 APERTURE LIST*
G04 Aperture macros list*
%AMRoundRect*
0 Rectangle with rounded corners*
0 $1 Rounding radius*
0 $2 $3 $4 $5 $6 $7 $8 $9 X,Y pos of 4 corners*
0 Add a 4 corners polygon primitive as box body*
4,1,4,$2,$3,$4,$5,$6,$7,$8,$9,$2,$3,0*
0 Add four circle primitives for the rounded corners*
1,1,$1+$1,$2,$3*
1,1,$1+$1,$4,$5*
1,1,$1+$1,$6,$7*
1,1,$1+$1,$8,$9*
0 Add four rect primitives between the rounded corners*
20,1,$1+$1,$2,$3,$4,$5,0*
20,1,$1+$1,$4,$5,$6,$7,0*
20,1,$1+$1,$6,$7,$8,$9,0*
20,1,$1+$1,$8,$9,$2,$3,0*%
%AMFreePoly0*
4,1,37,0.603843,0.796157,0.639018,0.796157,0.711114,0.766294,0.766294,0.711114,0.796157,0.639018,0.796157,0.603843,0.800000,0.600000,0.800000,-0.600000,0.796157,-0.603843,0.796157,-0.639018,0.766294,-0.711114,0.711114,-0.766294,0.639018,-0.796157,0.603843,-0.796157,0.600000,-0.800000,0.000000,-0.800000,0.000000,-0.796148,-0.078414,-0.796148,-0.232228,-0.765552,-0.377117,-0.705537,
-0.507515,-0.618408,-0.618408,-0.507515,-0.705537,-0.377117,-0.765552,-0.232228,-0.796148,-0.078414,-0.796148,0.078414,-0.765552,0.232228,-0.705537,0.377117,-0.618408,0.507515,-0.507515,0.618408,-0.377117,0.705537,-0.232228,0.765552,-0.078414,0.796148,0.000000,0.796148,0.000000,0.800000,0.600000,0.800000,0.603843,0.796157,0.603843,0.796157,$1*%
%AMFreePoly1*
4,1,37,0.000000,0.796148,0.078414,0.796148,0.232228,0.765552,0.377117,0.705537,0.507515,0.618408,0.618408,0.507515,0.705537,0.377117,0.765552,0.232228,0.796148,0.078414,0.796148,-0.078414,0.765552,-0.232228,0.705537,-0.377117,0.618408,-0.507515,0.507515,-0.618408,0.377117,-0.705537,0.232228,-0.765552,0.078414,-0.796148,0.000000,-0.796148,0.000000,-0.800000,-0.600000,-0.800000,
-0.603843,-0.796157,-0.639018,-0.796157,-0.711114,-0.766294,-0.766294,-0.711114,-0.796157,-0.639018,-0.796157,-0.603843,-0.800000,-0.600000,-0.800000,0.600000,-0.796157,0.603843,-0.796157,0.639018,-0.766294,0.711114,-0.711114,0.766294,-0.639018,0.796157,-0.603843,0.796157,-0.600000,0.800000,0.000000,0.800000,0.000000,0.796148,0.000000,0.796148,$1*%
G04 Aperture macros list end*
%ADD10C,3.000000*%
%ADD11RoundRect,0.102000X-0.754000X-0.754000X0.754000X-0.754000X0.754000X0.754000X-0.754000X0.754000X0*%
%ADD12C,1.712000*%
%ADD13RoundRect,0.200000X0.600000X-0.600000X0.600000X0.600000X-0.600000X0.600000X-0.600000X-0.600000X0*%
%ADD14C,1.600000*%
%ADD15FreePoly0,90.000000*%
%ADD16FreePoly1,90.000000*%
%ADD17C,1.750000*%
%ADD18C,4.000000*%
%ADD19C,2.500000*%
%ADD20RoundRect,0.250000X-0.550000X-0.550000X0.550000X-0.550000X0.550000X0.550000X-0.550000X0.550000X0*%
%ADD21O,4.100000X3.000000*%
%ADD22O,3.000000X1.500000*%
%ADD23O,2.500000X3.500000*%
%ADD24O,3.500000X2.500000*%
%ADD25C,5.000000*%
%ADD26RoundRect,0.250000X-0.550000X0.550000X-0.550000X-0.550000X0.550000X-0.550000X0.550000X0.550000X0*%
%ADD27RoundRect,0.250000X0.550000X-0.550000X0.550000X0.550000X-0.550000X0.550000X-0.550000X-0.550000X0*%
G04 APERTURE END LIST*
D10*
%TO.C,DS1*%
X208500000Y-40300000D03*
X208500000Y-70000000D03*
X240000000Y-40300000D03*
X240000000Y-70000000D03*
D11*
X220440000Y-39600000D03*
D12*
X222980000Y-39600000D03*
X225520000Y-39600000D03*
X228060000Y-39600000D03*
%TD*%
D13*
%TO.C,A1*%
X38150000Y-69291250D03*
D14*
X40690000Y-69291250D03*
D15*
X43230000Y-69291250D03*
D14*
X45770000Y-69291250D03*
X48310000Y-69291250D03*
X50850000Y-69291250D03*
X53390000Y-69291250D03*
D15*
X55930000Y-69291250D03*
D14*
X58470000Y-69291250D03*
X61010000Y-69291250D03*
X63550000Y-69291250D03*
X66090000Y-69291250D03*
D15*
X68630000Y-69291250D03*
D14*
X71170000Y-69291250D03*
X73710000Y-69291250D03*
X76250000Y-69291250D03*
X78790000Y-69291250D03*
D15*
X81330000Y-69291250D03*
D14*
X83870000Y-69291250D03*
X86410000Y-69291250D03*
X86410000Y-51511250D03*
X83870000Y-51511250D03*
D16*
X81330000Y-51511250D03*
D14*
X78790000Y-51511250D03*
X76250000Y-51511250D03*
X73710000Y-51511250D03*
X71170000Y-51511250D03*
D16*
X68630000Y-51511250D03*
D14*
X66090000Y-51511250D03*
X63550000Y-51511250D03*
X61010000Y-51511250D03*
X58470000Y-51511250D03*
D16*
X55930000Y-51511250D03*
D14*
X53390000Y-51511250D03*
X50850000Y-51511250D03*
X48310000Y-51511250D03*
X45770000Y-51511250D03*
D16*
X43230000Y-51511250D03*
D14*
X40690000Y-51511250D03*
X38150000Y-51511250D03*
%TD*%
D17*
%TO.C,MX16*%
X117153750Y-102106250D03*
D18*
X122233750Y-102106250D03*
D17*
X127313750Y-102106250D03*
D19*
X118423750Y-99566250D03*
X124773750Y-97026250D03*
%TD*%
D20*
%TO.C,SW4*%
X152590900Y-43076500D03*
D14*
X152590900Y-48076500D03*
X152590900Y-45576500D03*
D21*
X160090900Y-39976500D03*
X160090900Y-51176500D03*
%TD*%
D22*
%TO.C,J1*%
X47450000Y-37000000D03*
D23*
X39150000Y-42000000D03*
D24*
X42650000Y-46500000D03*
%TD*%
D25*
%TO.C,REF\u002A\u002A*%
X259500000Y-115000000D03*
%TD*%
D17*
%TO.C,MX6*%
X136203750Y-83056250D03*
D18*
X141283750Y-83056250D03*
D17*
X146363750Y-83056250D03*
D19*
X137473750Y-80516250D03*
X143823750Y-77976250D03*
%TD*%
D20*
%TO.C,SW8*%
X152590900Y-59076500D03*
D14*
X152590900Y-64076500D03*
X152590900Y-61576500D03*
D21*
X160090900Y-55976500D03*
X160090900Y-67176500D03*
%TD*%
D17*
%TO.C,MX15*%
X98103750Y-102106250D03*
D18*
X103183750Y-102106250D03*
D17*
X108263750Y-102106250D03*
D19*
X99373750Y-99566250D03*
X105723750Y-97026250D03*
%TD*%
D17*
%TO.C,MX1*%
X40953750Y-83056250D03*
D18*
X46033750Y-83056250D03*
D17*
X51113750Y-83056250D03*
D19*
X42223750Y-80516250D03*
X48573750Y-77976250D03*
%TD*%
D17*
%TO.C,MX10*%
X227450000Y-82950000D03*
D18*
X232530000Y-82950000D03*
D17*
X237610000Y-82950000D03*
D19*
X228720000Y-80410000D03*
X235070000Y-77870000D03*
%TD*%
D14*
%TO.C,R2*%
X57850000Y-34772500D03*
X65470000Y-34772500D03*
%TD*%
D17*
%TO.C,MX13*%
X60003750Y-102106250D03*
D18*
X65083750Y-102106250D03*
D17*
X70163750Y-102106250D03*
D19*
X61273750Y-99566250D03*
X67623750Y-97026250D03*
%TD*%
D14*
%TO.C,R1*%
X58137500Y-42372500D03*
X65757500Y-42372500D03*
%TD*%
D25*
%TO.C,REF\u002A\u002A*%
X259500000Y-23000000D03*
%TD*%
D17*
%TO.C,MX18*%
X155253750Y-102106250D03*
D18*
X160333750Y-102106250D03*
D17*
X165413750Y-102106250D03*
D19*
X156523750Y-99566250D03*
X162873750Y-97026250D03*
%TD*%
D17*
%TO.C,MX5*%
X117153750Y-83056250D03*
D18*
X122233750Y-83056250D03*
D17*
X127313750Y-83056250D03*
D19*
X118423750Y-80516250D03*
X124773750Y-77976250D03*
%TD*%
D17*
%TO.C,MX8*%
X174303750Y-83056250D03*
D18*
X179383750Y-83056250D03*
D17*
X184463750Y-83056250D03*
D19*
X175573750Y-80516250D03*
X181923750Y-77976250D03*
%TD*%
D20*
%TO.C,SW1*%
X95590900Y-43076500D03*
D14*
X95590900Y-48076500D03*
X95590900Y-45576500D03*
D21*
X103090900Y-39976500D03*
X103090900Y-51176500D03*
%TD*%
D17*
%TO.C,MX17*%
X136203750Y-102106250D03*
D18*
X141283750Y-102106250D03*
D17*
X146363750Y-102106250D03*
D19*
X137473750Y-99566250D03*
X143823750Y-97026250D03*
%TD*%
D20*
%TO.C,SW2*%
X114590900Y-43076500D03*
D14*
X114590900Y-48076500D03*
X114590900Y-45576500D03*
D21*
X122090900Y-39976500D03*
X122090900Y-51176500D03*
%TD*%
D20*
%TO.C,SW5*%
X95590900Y-59076500D03*
D14*
X95590900Y-64076500D03*
X95590900Y-61576500D03*
D21*
X103090900Y-55976500D03*
X103090900Y-67176500D03*
%TD*%
D25*
%TO.C,REF\u002A\u002A*%
X40500000Y-115000000D03*
%TD*%
D17*
%TO.C,MX20*%
X208400000Y-102000000D03*
D18*
X213480000Y-102000000D03*
D17*
X218560000Y-102000000D03*
D19*
X209670000Y-99460000D03*
X216020000Y-96920000D03*
%TD*%
D20*
%TO.C,SW6*%
X114590900Y-59076500D03*
D14*
X114590900Y-64076500D03*
X114590900Y-61576500D03*
D21*
X122090900Y-55976500D03*
X122090900Y-67176500D03*
%TD*%
D17*
%TO.C,MX22*%
X246500000Y-102000000D03*
D18*
X251580000Y-102000000D03*
D17*
X256660000Y-102000000D03*
D19*
X247770000Y-99460000D03*
X254120000Y-96920000D03*
%TD*%
D25*
%TO.C,REF\u002A\u002A*%
X40500000Y-23000000D03*
%TD*%
D17*
%TO.C,MX7*%
X155253750Y-83056250D03*
D18*
X160333750Y-83056250D03*
D17*
X165413750Y-83056250D03*
D19*
X156523750Y-80516250D03*
X162873750Y-77976250D03*
%TD*%
D17*
%TO.C,MX14*%
X79053750Y-102106250D03*
D18*
X84133750Y-102106250D03*
D17*
X89213750Y-102106250D03*
D19*
X80323750Y-99566250D03*
X86673750Y-97026250D03*
%TD*%
D17*
%TO.C,MX9*%
X208400000Y-82950000D03*
D18*
X213480000Y-82950000D03*
D17*
X218560000Y-82950000D03*
D19*
X209670000Y-80410000D03*
X216020000Y-77870000D03*
%TD*%
D20*
%TO.C,SW7*%
X133590900Y-59076500D03*
D14*
X133590900Y-64076500D03*
X133590900Y-61576500D03*
D21*
X141090900Y-55976500D03*
X141090900Y-67176500D03*
%TD*%
D17*
%TO.C,MX3*%
X79053750Y-83056250D03*
D18*
X84133750Y-83056250D03*
D17*
X89213750Y-83056250D03*
D19*
X80323750Y-80516250D03*
X86673750Y-77976250D03*
%TD*%
D17*
%TO.C,MX12*%
X40953750Y-102106250D03*
D18*
X46033750Y-102106250D03*
D17*
X51113750Y-102106250D03*
D19*
X42223750Y-99566250D03*
X48573750Y-97026250D03*
%TD*%
D17*
%TO.C,MX4*%
X98103750Y-83056250D03*
D18*
X103183750Y-83056250D03*
D17*
X108263750Y-83056250D03*
D19*
X99373750Y-80516250D03*
X105723750Y-77976250D03*
%TD*%
D17*
%TO.C,MX19*%
X174303750Y-102106250D03*
D18*
X179383750Y-102106250D03*
D17*
X184463750Y-102106250D03*
D19*
X175573750Y-99566250D03*
X181923750Y-97026250D03*
%TD*%
D26*
%TO.C,U1*%
X203700000Y-41900000D03*
D14*
X201160000Y-41900000D03*
X198620000Y-41900000D03*
X196080000Y-41900000D03*
X193540000Y-41900000D03*
X191000000Y-41900000D03*
X188460000Y-41900000D03*
X185920000Y-41900000D03*
X183380000Y-41900000D03*
X180840000Y-41900000D03*
X178300000Y-41900000D03*
X175760000Y-41900000D03*
X173220000Y-41900000D03*
X170680000Y-41900000D03*
X170680000Y-49520000D03*
X173220000Y-49520000D03*
X175760000Y-49520000D03*
X178300000Y-49520000D03*
X180840000Y-49520000D03*
X183380000Y-49520000D03*
X185920000Y-49520000D03*
X188460000Y-49520000D03*
X191000000Y-49520000D03*
X193540000Y-49520000D03*
X196080000Y-49520000D03*
X198620000Y-49520000D03*
X201160000Y-49520000D03*
X203700000Y-49520000D03*
%TD*%
D17*
%TO.C,MX21*%
X227450000Y-102000000D03*
D18*
X232530000Y-102000000D03*
D17*
X237610000Y-102000000D03*
D19*
X228720000Y-99460000D03*
X235070000Y-96920000D03*
%TD*%
D17*
%TO.C,MX11*%
X246500000Y-82950000D03*
D18*
X251580000Y-82950000D03*
D17*
X256660000Y-82950000D03*
D19*
X247770000Y-80410000D03*
X254120000Y-77870000D03*
%TD*%
D20*
%TO.C,SW3*%
X133590900Y-43076500D03*
D14*
X133590900Y-48076500D03*
X133590900Y-45576500D03*
D21*
X141090900Y-39976500D03*
X141090900Y-51176500D03*
%TD*%
D17*
%TO.C,MX2*%
X60003750Y-83056250D03*
D18*
X65083750Y-83056250D03*
D17*
X70163750Y-83056250D03*
D19*
X61273750Y-80516250D03*
X67623750Y-77976250D03*
%TD*%
D27*
%TO.C,D6*%
X150812500Y-84931250D03*
D14*
X150812500Y-77311250D03*
%TD*%
D27*
%TO.C,D18*%
X169862500Y-103981250D03*
D14*
X169862500Y-96361250D03*
%TD*%
D27*
%TO.C,D10*%
X242267500Y-84931250D03*
D14*
X242267500Y-77311250D03*
%TD*%
D27*
%TO.C,D3*%
X93662500Y-84931250D03*
D14*
X93662500Y-77311250D03*
%TD*%
D27*
%TO.C,D16*%
X131812500Y-103981250D03*
D14*
X131812500Y-96361250D03*
%TD*%
D27*
%TO.C,D15*%
X112762500Y-103981250D03*
D14*
X112762500Y-96361250D03*
%TD*%
D27*
%TO.C,D1*%
X55562500Y-84931250D03*
D14*
X55562500Y-77311250D03*
%TD*%
D27*
%TO.C,D5*%
X131812500Y-84931250D03*
D14*
X131812500Y-77311250D03*
%TD*%
D27*
%TO.C,D8*%
X196850000Y-84931250D03*
D14*
X196850000Y-77311250D03*
%TD*%
D27*
%TO.C,D17*%
X150862500Y-103981250D03*
D14*
X150862500Y-96361250D03*
%TD*%
D27*
%TO.C,D19*%
X196850000Y-103981250D03*
D14*
X196850000Y-96361250D03*
%TD*%
D27*
%TO.C,D13*%
X74612500Y-103981250D03*
D14*
X74612500Y-96361250D03*
%TD*%
D27*
%TO.C,D14*%
X93662500Y-103981250D03*
D14*
X93662500Y-96361250D03*
%TD*%
D27*
%TO.C,D7*%
X169862500Y-84931250D03*
D14*
X169862500Y-77311250D03*
%TD*%
D27*
%TO.C,D11*%
X261143750Y-84931250D03*
D14*
X261143750Y-77311250D03*
%TD*%
D27*
%TO.C,D2*%
X74612500Y-84931250D03*
D14*
X74612500Y-77311250D03*
%TD*%
D27*
%TO.C,D21*%
X242093750Y-103981250D03*
D14*
X242093750Y-96361250D03*
%TD*%
D27*
%TO.C,D22*%
X261143750Y-103981250D03*
D14*
X261143750Y-96361250D03*
%TD*%
D27*
%TO.C,D12*%
X55562500Y-103981250D03*
D14*
X55562500Y-96361250D03*
%TD*%
D27*
%TO.C,D9*%
X223043750Y-84931250D03*
D14*
X223043750Y-77311250D03*
%TD*%
D27*
%TO.C,D4*%
X112762500Y-84931250D03*
D14*
X112762500Y-77311250D03*
%TD*%
D27*
%TO.C,D20*%
X223043750Y-103981250D03*
D14*
X223043750Y-96361250D03*
%TD*%
M02*
