M48
; DRILL file {KiCad 9.0.4-1.fc42} date 2025-11-01T05:47:52+0000
; FORMAT={-:-/ absolute / metric / decimal}
; #@! TF.CreationDate,2025-11-01T05:47:52+00:00
; #@! TF.GenerationSoftware,Kicad,Pcbnew,9.0.4-1.fc42
; #@! TF.FileFunction,NonPlated,1,2,NPTH
FMAT,2
METRIC
; #@! TA.AperFunction,NonPlated,NPTH,ComponentDrill
T1C1.750
; #@! TA.AperFunction,NonPlated,NPTH,ComponentDrill
T2C3.000
; #@! TA.AperFunction,NonPlated,NPTH,ComponentDrill
T3C4.000
%
G90
G05
T1
X40.954Y-83.056
X40.954Y-102.106
X51.114Y-83.056
X51.114Y-102.106
X60.004Y-83.056
X60.004Y-102.106
X70.164Y-83.056
X70.164Y-102.106
X79.054Y-83.056
X79.054Y-102.106
X89.214Y-83.056
X89.214Y-102.106
X98.104Y-83.056
X98.104Y-102.106
X108.264Y-83.056
X108.264Y-102.106
X117.154Y-83.056
X117.154Y-102.106
X127.314Y-83.056
X127.314Y-102.106
X136.204Y-83.056
X136.204Y-102.106
X146.364Y-83.056
X146.364Y-102.106
X155.254Y-83.056
X155.254Y-102.106
X165.414Y-83.056
X165.414Y-102.106
X174.304Y-83.056
X174.304Y-102.106
X184.464Y-83.056
X184.464Y-102.106
X208.4Y-82.95
X208.4Y-102.0
X218.56Y-82.95
X218.56Y-102.0
X227.45Y-82.95
X227.45Y-102.0
X237.61Y-82.95
X237.61Y-102.0
X246.5Y-82.95
X246.5Y-102.0
X256.66Y-82.95
X256.66Y-102.0
T2
X208.5Y-40.3
X208.5Y-70.0
X240.0Y-40.3
X240.0Y-70.0
T3
X46.034Y-83.056
X46.034Y-102.106
X65.084Y-83.056
X65.084Y-102.106
X84.134Y-83.056
X84.134Y-102.106
X103.184Y-83.056
X103.184Y-102.106
X122.234Y-83.056
X122.234Y-102.106
X141.284Y-83.056
X141.284Y-102.106
X160.334Y-83.056
X160.334Y-102.106
X179.384Y-83.056
X179.384Y-102.106
X213.48Y-82.95
X213.48Y-102.0
X232.53Y-82.95
X232.53Y-102.0
X251.58Y-82.95
X251.58Y-102.0
M30
