M48
; DRILL file {KiCad 9.0.4-1.fc42} date 2025-11-01T05:47:52+0000
; FORMAT={-:-/ absolute / metric / decimal}
; #@! TF.CreationDate,2025-11-01T05:47:52+00:00
; #@! TF.GenerationSoftware,Kicad,Pcbnew,9.0.4-1.fc42
; #@! TF.FileFunction,Plated,1,2,PTH
FMAT,2
METRIC
; #@! TA.AperFunction,Plated,PTH,ViaDrill
T1C0.300
; #@! TA.AperFunction,Plated,PTH,ComponentDrill
T2C0.800
; #@! TA.AperFunction,Plated,PTH,ComponentDrill
T3C1.000
; #@! TA.AperFunction,Plated,PTH,ComponentDrill
T4C1.500
; #@! TA.AperFunction,Plated,PTH,ComponentDrill
T5C2.000
; #@! TA.AperFunction,Plated,PTH,ComponentDrill
T6C2.500
%
G90
G05
T1
X67.7Y-42.372
X79.25Y-46.273
X253.976Y-73.849
X255.467Y-74.437
T2
X55.562Y-77.311
X55.562Y-84.931
X55.562Y-96.361
X55.562Y-103.981
X57.85Y-34.773
X58.137Y-42.372
X65.47Y-34.773
X65.757Y-42.372
X74.612Y-77.311
X74.612Y-84.931
X74.612Y-96.361
X74.612Y-103.981
X93.662Y-77.311
X93.662Y-84.931
X93.662Y-96.361
X93.662Y-103.981
X112.762Y-77.311
X112.762Y-84.931
X112.762Y-96.361
X112.762Y-103.981
X131.812Y-77.311
X131.812Y-84.931
X131.812Y-96.361
X131.812Y-103.981
X150.812Y-77.311
X150.812Y-84.931
X150.862Y-96.361
X150.862Y-103.981
X169.862Y-77.311
X169.862Y-84.931
X169.862Y-96.361
X169.862Y-103.981
X170.68Y-41.9
X170.68Y-49.52
X173.22Y-41.9
X173.22Y-49.52
X175.76Y-41.9
X175.76Y-49.52
X178.3Y-41.9
X178.3Y-49.52
X180.84Y-41.9
X180.84Y-49.52
X183.38Y-41.9
X183.38Y-49.52
X185.92Y-41.9
X185.92Y-49.52
X188.46Y-41.9
X188.46Y-49.52
X191.0Y-41.9
X191.0Y-49.52
X193.54Y-41.9
X193.54Y-49.52
X196.08Y-41.9
X196.08Y-49.52
X196.85Y-77.311
X196.85Y-84.931
X196.85Y-96.361
X196.85Y-103.981
X198.62Y-41.9
X198.62Y-49.52
X201.16Y-41.9
X201.16Y-49.52
X203.7Y-41.9
X203.7Y-49.52
X223.044Y-77.311
X223.044Y-84.931
X223.044Y-96.361
X223.044Y-103.981
X242.094Y-96.361
X242.094Y-103.981
X242.267Y-77.311
X242.267Y-84.931
X261.144Y-77.311
X261.144Y-84.931
X261.144Y-96.361
X261.144Y-103.981
T3
X38.15Y-51.511
X38.15Y-69.291
X40.69Y-51.511
X40.69Y-69.291
X43.23Y-51.511
X43.23Y-69.291
X45.77Y-51.511
X45.77Y-69.291
X48.31Y-51.511
X48.31Y-69.291
X50.85Y-51.511
X50.85Y-69.291
X53.39Y-51.511
X53.39Y-69.291
X55.93Y-51.511
X55.93Y-69.291
X58.47Y-51.511
X58.47Y-69.291
X61.01Y-51.511
X61.01Y-69.291
X63.55Y-51.511
X63.55Y-69.291
X66.09Y-51.511
X66.09Y-69.291
X68.63Y-51.511
X68.63Y-69.291
X71.17Y-51.511
X71.17Y-69.291
X73.71Y-51.511
X73.71Y-69.291
X76.25Y-51.511
X76.25Y-69.291
X78.79Y-51.511
X78.79Y-69.291
X81.33Y-51.511
X81.33Y-69.291
X83.87Y-51.511
X83.87Y-69.291
X86.41Y-51.511
X86.41Y-69.291
X95.591Y-43.076
X95.591Y-45.576
X95.591Y-48.076
X95.591Y-59.076
X95.591Y-61.576
X95.591Y-64.076
X114.591Y-43.076
X114.591Y-45.576
X114.591Y-48.076
X114.591Y-59.076
X114.591Y-61.576
X114.591Y-64.076
X133.591Y-43.076
X133.591Y-45.576
X133.591Y-48.076
X133.591Y-59.076
X133.591Y-61.576
X133.591Y-64.076
X152.591Y-43.076
X152.591Y-45.576
X152.591Y-48.076
X152.591Y-59.076
X152.591Y-61.576
X152.591Y-64.076
X220.44Y-39.6
X222.98Y-39.6
X225.52Y-39.6
X228.06Y-39.6
T4
X42.224Y-80.516
X42.224Y-99.566
X48.574Y-77.976
X48.574Y-97.026
X61.274Y-80.516
X61.274Y-99.566
X67.624Y-77.976
X67.624Y-97.026
X80.324Y-80.516
X80.324Y-99.566
X86.674Y-77.976
X86.674Y-97.026
X99.374Y-80.516
X99.374Y-99.566
X105.724Y-77.976
X105.724Y-97.026
X118.424Y-80.516
X118.424Y-99.566
X124.774Y-77.976
X124.774Y-97.026
X137.474Y-80.516
X137.474Y-99.566
X143.824Y-77.976
X143.824Y-97.026
X156.524Y-80.516
X156.524Y-99.566
X162.874Y-77.976
X162.874Y-97.026
X175.574Y-80.516
X175.574Y-99.566
X181.924Y-77.976
X181.924Y-97.026
X209.67Y-80.41
X209.67Y-99.46
X216.02Y-77.87
X216.02Y-96.92
X228.72Y-80.41
X228.72Y-99.46
X235.07Y-77.87
X235.07Y-96.92
X247.77Y-80.41
X247.77Y-99.46
X254.12Y-77.87
X254.12Y-96.92
T6
X40.5Y-23.0
X40.5Y-115.0
X259.5Y-23.0
X259.5Y-115.0
T3
G00X39.15Y-41.5
M15
G01X39.15Y-42.5
M16
G05
G00X42.15Y-46.5
M15
G01X43.15Y-46.5
M16
G05
G00X46.95Y-37.0
M15
G01X47.95Y-37.0
M16
G05
T5
G00X102.541Y-39.977
M15
G01X103.641Y-39.977
M16
G05
G00X102.541Y-51.176
M15
G01X103.641Y-51.176
M16
G05
G00X102.541Y-55.976
M15
G01X103.641Y-55.976
M16
G05
G00X102.541Y-67.176
M15
G01X103.641Y-67.176
M16
G05
G00X121.541Y-39.977
M15
G01X122.641Y-39.977
M16
G05
G00X121.541Y-51.176
M15
G01X122.641Y-51.176
M16
G05
G00X121.541Y-55.976
M15
G01X122.641Y-55.976
M16
G05
G00X121.541Y-67.176
M15
G01X122.641Y-67.176
M16
G05
G00X140.541Y-39.977
M15
G01X141.641Y-39.977
M16
G05
G00X140.541Y-51.176
M15
G01X141.641Y-51.176
M16
G05
G00X140.541Y-55.976
M15
G01X141.641Y-55.976
M16
G05
G00X140.541Y-67.176
M15
G01X141.641Y-67.176
M16
G05
G00X159.541Y-39.977
M15
G01X160.641Y-39.977
M16
G05
G00X159.541Y-51.176
M15
G01X160.641Y-51.176
M16
G05
G00X159.541Y-55.976
M15
G01X160.641Y-55.976
M16
G05
G00X159.541Y-67.176
M15
G01X160.641Y-67.176
M16
G05
M30
